<?xml version="1.0" encoding="UTF-8" standalone="no"?>
<!DOCTYPE svg PUBLIC "-//W3C//DTD SVG 1.1//EN"
 "http://www.w3.org/Graphics/SVG/1.1/DTD/svg11.dtd">
<!-- Generated by graphviz version 2.49.3 (0)
 -->
<!-- Pages: 1 -->
<svg width="62pt" height="305pt"
 viewBox="0.00 0.00 62.00 305.00" xmlns="http://www.w3.org/2000/svg" xmlns:xlink="http://www.w3.org/1999/xlink">
<g id="graph0" class="graph" transform="scale(1 1) rotate(0) translate(4 301)">
<polygon fill="white" stroke="transparent" points="-4,4 -4,-301 58,-301 58,4 -4,4"/>
<!-- 0 -->
<g id="node1" class="node">
<title>0</title>
<ellipse fill="#f07878" stroke="#708090" stroke-width="2" cx="27" cy="-279" rx="27" ry="18"/>
<text text-anchor="middle" x="27" y="-275.3" font-family="Helvetica,sans-Serif" font-weight="bold" font-size="14.00" fill="#000000">W</text>
</g>
<!-- 1 -->
<g id="node2" class="node">
<title>1</title>
<ellipse fill="#f07878" stroke="#708090" stroke-width="2" cx="27" cy="-192" rx="27" ry="18"/>
<text text-anchor="middle" x="27" y="-188.3" font-family="Helvetica,sans-Serif" font-weight="bold" font-size="14.00" fill="#000000">W</text>
</g>
<!-- 0&#45;&#45;1 -->
<g id="edge1" class="edge">
<title>0&#45;&#45;1</title>
<path fill="none" stroke="#778899" stroke-width="1.5" stroke-dasharray="5,2" d="M27,-260.8C27,-246.05 27,-224.92 27,-210.18"/>
<text text-anchor="middle" x="31" y="-231.8" font-family="Helvetica,sans-Serif" font-size="14.00">1</text>
</g>
<!-- 2 -->
<g id="node3" class="node">
<title>2</title>
<ellipse fill="#f07878" stroke="#708090" stroke-width="2" cx="27" cy="-105" rx="27" ry="18"/>
<text text-anchor="middle" x="27" y="-101.3" font-family="Helvetica,sans-Serif" font-weight="bold" font-size="14.00" fill="#000000">W</text>
</g>
<!-- 1&#45;&#45;2 -->
<g id="edge2" class="edge">
<title>1&#45;&#45;2</title>
<path fill="none" stroke="#778899" stroke-width="1.5" stroke-dasharray="5,2" d="M27,-173.8C27,-159.05 27,-137.92 27,-123.18"/>
<text text-anchor="middle" x="31" y="-144.8" font-family="Helvetica,sans-Serif" font-size="14.00">1</text>
</g>
<!-- 3 -->
<g id="node4" class="node">
<title>3</title>
<ellipse fill="#ffc0cb" stroke="#708090" stroke-width="2" cx="27" cy="-18" rx="27" ry="18"/>
<text text-anchor="middle" x="27" y="-14.3" font-family="Helvetica,sans-Serif" font-weight="bold" font-size="14.00" fill="#000000">NP</text>
</g>
<!-- 2&#45;&#45;3 -->
<g id="edge3" class="edge">
<title>2&#45;&#45;3</title>
<path fill="none" stroke="#778899" stroke-width="1.5" stroke-dasharray="5,2" d="M27,-86.8C27,-72.05 27,-50.92 27,-36.18"/>
<text text-anchor="middle" x="31" y="-57.8" font-family="Helvetica,sans-Serif" font-size="14.00">1</text>
</g>
</g>
</svg>
